<svg xmlns="http://www.w3.org/2000/svg" width="98" height="83" viewBox="0 0 98 83" fill="none">
  <path d="M72.9684 3.97998H35.7593V16.9148H78.9684V9.97998C78.9684 6.66627 76.2821 3.97998 72.9684 3.97998Z" fill="#DFE8F1"/>
  <path d="M6 0H32.5142C34.539 0 36.4272 1.02121 37.5355 2.71571L43.442 11.7461C44.5379 13.4216 46.3974 14.4401 48.3994 14.4614L85.8954 14.861C89.2036 14.8963 91.859 17.6027 91.8312 20.911L91.4347 68.1768C91.4071 71.4707 88.729 74.1264 85.4349 74.1264H6C2.68629 74.1264 0 71.4402 0 68.1264V6C0 2.68629 2.68629 0 6 0Z" fill="url(#paint0_linear_130_969)"/>
  <g opacity="0.8" filter="url(#filter0_f_130_969)">
    <path fill-rule="evenodd" clip-rule="evenodd" d="M66.5519 76.6139C76.4266 76.6139 84.4316 68.5955 84.4316 58.7042C84.4316 48.8129 76.4266 40.7944 66.5519 40.7944C56.6773 40.7944 48.6723 48.8129 48.6723 58.7042C48.6723 68.5955 56.6773 76.6139 66.5519 76.6139ZM66.5519 69.649C72.5864 69.649 77.4783 64.7489 77.4783 58.7042C77.4783 52.6595 72.5864 47.7593 66.5519 47.7593C60.5174 47.7593 55.6255 52.6595 55.6255 58.7042C55.6255 64.7489 60.5174 69.649 66.5519 69.649Z" fill="#C5CEDD"/>
  </g>
  <path d="M78.8098 65.5322L84.6146 60.492L95.4847 73.0533C96.8739 74.6586 96.7005 77.0882 95.0976 78.4801C93.4946 79.8719 91.069 79.6988 89.6798 78.0936L78.8098 65.5322Z" fill="url(#paint1_linear_130_969)"/>
  <path d="M79.2438 67.6675L76.9187 64.9503L84.3685 58.4829L86.7029 61.211C87.0602 61.6285 87.0137 62.256 86.5987 62.6163L80.6592 67.7725C80.24 68.1364 79.6047 68.0893 79.2438 67.6675Z" fill="url(#paint2_linear_130_969)"/>
  <g filter="url(#filter1_i_130_969)">
    <path fill-rule="evenodd" clip-rule="evenodd" d="M70.5252 66.6642C80.3998 66.6642 88.4048 58.6458 88.4048 48.7545C88.4048 38.8632 80.3998 30.8447 70.5252 30.8447C60.6506 30.8447 52.6456 38.8632 52.6456 48.7545C52.6456 58.6458 60.6506 66.6642 70.5252 66.6642ZM70.5253 59.6993C76.5598 59.6993 81.4517 54.7991 81.4517 48.7545C81.4517 42.7098 76.5598 37.8096 70.5253 37.8096C64.4908 37.8096 59.5988 42.7098 59.5988 48.7545C59.5988 54.7991 64.4908 59.6993 70.5253 59.6993Z" fill="#C5CEDD"/>
  </g>
  <path fill-rule="evenodd" clip-rule="evenodd" d="M10 27C10 25.3431 11.3431 24 13 24H55C56.6569 24 58 25.3431 58 27C58 28.6569 56.6569 30 55 30H13C11.3431 30 10 28.6569 10 27ZM10 39C10 37.3431 11.3431 36 13 36H43C44.6569 36 46 37.3431 46 39C46 40.6569 44.6569 42 43 42H13C11.3431 42 10 40.6569 10 39ZM13 48C11.3431 48 10 49.3431 10 51C10 52.6569 11.3431 54 13 54H31C32.6569 54 34 52.6569 34 51C34 49.3431 32.6569 48 31 48H13Z" fill="url(#paint3_linear_130_969)"/>
  <defs>
    <filter id="filter0_f_130_969" x="42.6723" y="34.7944" width="47.7593" height="47.8193" filterUnits="userSpaceOnUse" color-interpolation-filters="sRGB">
      <feFlood flood-opacity="0" result="BackgroundImageFix"/>
      <feBlend mode="normal" in="SourceGraphic" in2="BackgroundImageFix" result="shape"/>
      <feGaussianBlur stdDeviation="3" result="effect1_foregroundBlur_130_969"/>
    </filter>
    <filter id="filter1_i_130_969" x="52.6456" y="30.8447" width="35.7593" height="37.8193" filterUnits="userSpaceOnUse" color-interpolation-filters="sRGB">
      <feFlood flood-opacity="0" result="BackgroundImageFix"/>
      <feBlend mode="normal" in="SourceGraphic" in2="BackgroundImageFix" result="shape"/>
      <feColorMatrix in="SourceAlpha" type="matrix" values="0 0 0 0 0 0 0 0 0 0 0 0 0 0 0 0 0 0 127 0" result="hardAlpha"/>
      <feOffset dy="2"/>
      <feGaussianBlur stdDeviation="2"/>
      <feComposite in2="hardAlpha" operator="arithmetic" k2="-1" k3="1"/>
      <feColorMatrix type="matrix" values="0 0 0 0 0.975439 0 0 0 0 0.986603 0 0 0 0 1 0 0 0 1 0"/>
      <feBlend mode="normal" in2="shape" result="effect1_innerShadow_130_969"/>
    </filter>
    <linearGradient id="paint0_linear_130_969" x1="45.9407" y1="0" x2="45.9407" y2="74.1264" gradientUnits="userSpaceOnUse">
      <stop stop-color="#F1F6FC"/>
      <stop offset="1" stop-color="#E1EAF4"/>
    </linearGradient>
    <linearGradient id="paint1_linear_130_969" x1="91.9332" y1="68.9314" x2="86.1083" y2="74.0522" gradientUnits="userSpaceOnUse">
      <stop stop-color="#6FA9FF"/>
      <stop offset="0.309359" stop-color="#297EFC"/>
      <stop offset="0.564965" stop-color="#3484F9"/>
      <stop offset="0.785037" stop-color="#1772F8"/>
      <stop offset="1" stop-color="#68A5FF"/>
    </linearGradient>
    <linearGradient id="paint2_linear_130_969" x1="85.8585" y1="60.4729" x2="78.3989" y2="66.4305" gradientUnits="userSpaceOnUse">
      <stop stop-color="#F5FAFF"/>
      <stop offset="0.243821" stop-color="#D2D9E3"/>
      <stop offset="0.592316" stop-color="#F5FAFF"/>
      <stop offset="0.824314" stop-color="#D2D9E3"/>
      <stop offset="1" stop-color="#F5FAFF"/>
    </linearGradient>
    <linearGradient id="paint3_linear_130_969" x1="34" y1="24" x2="34" y2="54" gradientUnits="userSpaceOnUse">
      <stop stop-color="white"/>
      <stop offset="1" stop-color="white" stop-opacity="0.2"/>
    </linearGradient>
  </defs>
</svg>