<svg xmlns="http://www.w3.org/2000/svg" width="64" height="64" viewBox="0 0 64 64" fill="none">
  <rect width="64" height="64" rx="16" fill="black"/>
  <path d="M35.7564 13.0944L28.6235 20.4328L18.6631 18.084L25.796 10.75L35.7564 13.0944Z" fill="#125BC5"/>
  <path d="M28.6235 20.4327L31.9997 31.9866L24.9818 39.7187L18.6631 18.0839L28.6235 20.4327Z" fill="#1772F8"/>
  <path d="M33.5796 43.023L23.6192 40.6742L16.4863 48.0126L26.4467 50.357L33.5796 43.023Z" fill="#00C9FF"/>
  <path d="M23.6191 40.6742L17.3491 19.2163L10.1631 26.3778L16.4862 48.0127L23.6191 40.6742Z" fill="url(#paint0_linear_527_834)"/>
  <path d="M30.4204 20.9548L40.3808 23.3036L47.5137 15.9652L37.5533 13.6164L30.4204 20.9548Z" fill="#00C9FF"/>
  <path d="M40.3809 23.3035L46.6509 44.757L53.8369 37.5999L47.5138 15.9651L40.3809 23.3035Z" fill="url(#paint1_linear_527_834)"/>
  <path d="M28.1016 50.9012L35.2345 43.5627L45.1948 45.9116L38.062 53.25L28.1016 50.9012Z" fill="#125BC5"/>
  <path d="M35.2346 43.5628L31.8584 32.0088L38.8718 24.2767L45.195 45.9116L35.2346 43.5628Z" fill="#1772F8"/>
  <defs>
    <linearGradient id="paint0_linear_527_834" x1="12.9964" y1="20.4782" x2="20.6749" y2="46.7795" gradientUnits="userSpaceOnUse">
      <stop stop-color="#00BFFF"/>
      <stop offset="1" stop-color="#1772F8"/>
    </linearGradient>
    <linearGradient id="paint1_linear_527_834" x1="50.9204" y1="43.4794" x2="43.2419" y2="17.1781" gradientUnits="userSpaceOnUse">
      <stop stop-color="#00BFFF"/>
      <stop offset="1" stop-color="#1155B8"/>
    </linearGradient>
  </defs>
</svg>